<?xml version="1.0" standalone="no"?><!DOCTYPE svg PUBLIC "-//W3C//DTD SVG 1.1//EN" "http://www.w3.org/Graphics/SVG/1.1/DTD/svg11.dtd"><svg t="1505789501357" class="icon" style="" viewBox="0 0 1025 1024" version="1.1" xmlns="http://www.w3.org/2000/svg" p-id="2046" xmlns:xlink="http://www.w3.org/1999/xlink" width="200.1953125" height="200"><defs><style type="text/css"></style></defs><path d="M281.239797 766.211272c-6.433071 0-12.708465-2.530021-17.377382-7.197914-6.20065-6.20065-8.627258-15.235414-6.367543-23.707041l96.651703-362.445166c2.266882-8.503368 8.908826-15.144288 17.41117-17.41117l362.445166-96.651703c8.469579-2.259715 17.505367 0.166893 23.707041 6.367543 6.20065 6.20065 8.627258 15.23439 6.367543 23.707041l-96.650679 362.445166c-2.266882 8.503368-8.908826 15.145312-17.412194 17.412194l-362.445166 96.650679C285.476635 765.938919 283.350025 766.211272 281.239797 766.211272zM397.967844 399.270226l-82.050074 307.686755 307.687779-82.049051 82.049051-307.687779L397.967844 399.270226zM643.682916 644.986322l0.010239 0L643.682916 644.986322z" p-id="2047"></path><path d="M513.203065 1019.921865c-68.270626 0-134.634777-13.487641-197.24946-40.088182-60.409234-25.663686-114.722255-62.358712-161.428832-109.065289-46.707601-46.707601-83.402627-101.019598-109.066313-161.428832-26.600541-62.614683-40.088182-128.978834-40.088182-197.24946s13.487641-134.634777 40.088182-197.24946c25.66471-60.409234 62.359736-114.722255 109.066313-161.428832C201.23135 106.704209 255.544371 70.008159 315.953605 44.344473c62.614683-26.600541 128.978834-40.088182 197.24946-40.088182 68.270626 0 134.634777 13.487641 197.248436 40.088182 60.409234 25.66471 114.722255 62.359736 161.428832 109.066313 46.706577 46.706577 83.402627 101.019598 109.066313 161.428832 26.600541 62.614683 40.088182 128.978834 40.088182 197.24946s-13.487641 134.634777-40.088182 197.24946c-25.663686 60.409234-62.358712 114.721231-109.065289 161.428832-46.707601 46.706577-101.019598 83.401603-161.429856 109.065289C647.837842 1006.434223 581.473691 1019.921865 513.203065 1019.921865zM513.203065 53.402787c-61.630729 0-121.529045 12.170925-178.032156 36.175916-54.580255 23.186907-103.666341 56.356696-145.894444 98.584799s-75.396868 91.314189-98.584799 145.894444C66.686675 390.560033 54.51575 450.458349 54.51575 512.089078s12.170925 121.529045 36.175916 178.032156c23.186907 54.580255 56.355672 103.665317 98.584799 145.89342s91.314189 75.396868 145.894444 98.583775c56.503112 24.003968 116.402451 36.175916 178.032156 36.175916 61.630729 0 121.529045-12.171949 178.032156-36.175916 54.580255-23.186907 103.666341-56.355672 145.894444-98.583775s75.396868-91.314189 98.583775-145.89342c24.003968-56.504136 36.175916-116.402451 36.175916-178.032156s-12.171949-121.529045-36.175916-178.032156c-23.186907-54.580255-56.356696-103.666341-98.584799-145.894444s-91.314189-75.396868-145.89342-98.584799C634.73211 65.573712 574.832771 53.402787 513.203065 53.402787z" p-id="2048"></path><path d="M550.37727 571.277841c-6.289728 0-12.577407-2.398963-17.376358-7.19689l-63.821844-63.821844c-9.596877-9.596877-9.596877-25.155839 0-34.751692 9.596877-9.595853 25.154815-9.595853 34.751692 0l63.821844 63.821844c9.595853 9.596877 9.595853 25.154815 0 34.751692C562.954677 568.879901 556.665973 571.277841 550.37727 571.277841z" p-id="2049"></path></svg>