<?xml version="1.0" standalone="no"?><!DOCTYPE svg PUBLIC "-//W3C//DTD SVG 1.1//EN" "http://www.w3.org/Graphics/SVG/1.1/DTD/svg11.dtd"><svg t="1505961242308" class="icon" style="" viewBox="0 0 1024 1024" version="1.1" xmlns="http://www.w3.org/2000/svg" p-id="11188" xmlns:xlink="http://www.w3.org/1999/xlink" width="200" height="200"><defs><style type="text/css"></style></defs><path d="M542.285714 510.285714q0 14.857143-9.428571 25.714286T509.142857 546.857143q-14.857143 0-25.714286-9.428572T472.571429 513.714286q0-14.857143 9.714285-25.714286t24-10.857143 25.142857 9.428572 10.857143 23.714285z m8.571429 33.142857l200-332q-5.142857 4.571429-38.571429 35.714286T640.571429 313.714286 562.571429 386.285714t-66.857143 63.142857T466.857143 478.857143l-199.428572 331.428571q4-4 38.285715-35.428571t72-66.571429 77.714285-72.571428 66.857143-63.428572 28.571429-28.857143z m369.714286-31.428571q0 114.857143-59.428572 212-1.714286-1.142857-9.714286-6.285714t-15.142857-9.428572-9.428571-4.285714q-7.428571 0-7.428572 7.428571 0 5.714286 33.714286 25.142858-42.285714 64-105.428571 108.857142T609.714286 908.571429l-9.142857-38.285715q-0.571429-5.714286-8.571429-5.714285-2.857143 0-4.571429 3.142857t-1.142857 5.428571l9.142857 38.857143q-41.142857 8.571429-83.428571 8.571429-113.714286 0-212.571429-60 0.571429-1.142857 7.428572-11.714286t12.285714-19.142857 5.428572-10.857143q0-7.428571-7.428572-7.428572-3.428571 0-9.714286 8.285715t-12.857142 19.714285-7.714286 13.142858q-64.571429-42.857143-109.714286-107.142858T114.285714 605.714286l39.428572-8.571429q5.714286-1.714286 5.714285-8.571428 0-2.857143-3.142857-4.571429t-6-1.142857l-38.857143 8.571428q-8-41.142857-8-79.428571 0-117.714286 62.285715-216.571429 1.142857 0.571429 10.571428 6.857143t17.142857 10.857143 10 4.571429q7.428571 0 7.428572-6.857143 0-3.428571-7.142857-8.857143T185.142857 289.714286l-11.428571-6.857143q44-64 108-108t139.428571-61.142857l8.571429 38.285714q1.142857 5.714286 8.571428 5.714286 2.857143 0 4.571429-3.142857t1.142857-6l-8.571429-37.714286q40.571429-7.428571 76.571429-7.428572 116.571429 0 216.571429 62.285715-22.285714 32-22.285715 37.142857 0 7.428571 6.857143 7.428571 6.285714 0 27.428572-36.571428 63.428571 42.857143 107.142857 106.285714T909.142857 417.714286l-32 6.857143q-5.714286 1.142857-5.714286 9.142857 0 2.857143 3.142858 4.571428t5.428571 1.142857l32.571429-7.428571q8 41.142857 8 80z m48.571428 0q0-93.142857-36.285714-177.714286T835.428571 188.571429t-145.714285-97.428572T512 54.857143t-177.714286 36.285714T188.571429 188.571429 91.142857 334.285714 54.857143 512t36.285714 177.714286T188.571429 835.428571t145.714285 97.428572 177.714286 36.285714 177.714286-36.285714 145.714285-97.428572 97.428572-145.714285 36.285714-177.714286z m54.857143 0q0 104-40.571429 198.857143t-109.142857 163.428571-163.428571 109.142857-198.857143 40.571429-198.857143-40.571429-163.428571-109.142857-109.142857-163.428571T0 512t40.571429-198.857143 109.142857-163.428571T313.142857 40.571429 512 0t198.857143 40.571429 163.428571 109.142857 109.142857 163.428571 40.571429 198.857143z" p-id="11189" fill="#1296db"></path></svg>