<?xml version="1.0" standalone="no"?><!DOCTYPE svg PUBLIC "-//W3C//DTD SVG 1.1//EN" "http://www.w3.org/Graphics/SVG/1.1/DTD/svg11.dtd"><svg t="1505791382778" class="icon" style="" viewBox="0 0 1024 1024" version="1.1" xmlns="http://www.w3.org/2000/svg" p-id="2579" xmlns:xlink="http://www.w3.org/1999/xlink" width="200" height="200"><defs><style type="text/css"></style></defs><path d="M392 286.2c17.8 0 32.3-14.4 32.3-32.3 0-35.6 28.9-64.5 64.5-64.5h64.5c35.6 0 64.5 28.9 64.5 64.5 0 17.8 14.4 32.3 32.3 32.3s32.3-14.4 32.3-32.3c0-71.2-57.9-129-129-129h-64.5c-71.2 0-129 57.9-129 129-0.2 17.9 14.2 32.3 32.1 32.3zM811.3 318.5H230.7c-53.4 0-96.8 43.4-96.8 96.8v387.1c0 53.4 43.4 96.8 96.8 96.8h580.6c53.4 0 96.8-43.4 96.8-96.8V415.2c0-53.3-43.4-96.7-96.8-96.7z m32.3 483.8c0 17.8-14.5 32.3-32.3 32.3H230.7c-17.8 0-32.3-14.5-32.3-32.3V415.2c0-17.8 14.5-32.3 32.3-32.3h580.6c17.8 0 32.3 14.5 32.3 32.3v387.1z" p-id="2580"></path><path d="M650 576.5h-96.8v-96.8c0-17.8-14.4-32.3-32.3-32.3-17.8 0-32.3 14.4-32.3 32.3v96.8H392c-17.8 0-32.3 14.4-32.3 32.3S374.1 641 392 641h96.8v96.8c0 17.8 14.4 32.3 32.3 32.3 17.8 0 32.3-14.4 32.3-32.3V641H650c17.8 0 32.3-14.4 32.3-32.3s-14.4-32.2-32.3-32.2z" p-id="2581"></path></svg>