<?xml version="1.0" standalone="no"?><!DOCTYPE svg PUBLIC "-//W3C//DTD SVG 1.1//EN" "http://www.w3.org/Graphics/SVG/1.1/DTD/svg11.dtd"><svg t="1505961274193" class="icon" style="" viewBox="0 0 1024 1024" version="1.1" xmlns="http://www.w3.org/2000/svg" p-id="11902" xmlns:xlink="http://www.w3.org/1999/xlink" width="200" height="200"><defs><style type="text/css"></style></defs><path d="M439.4924 956.495011C214.530801 922.918653 56.695313 746.126061 56.695313 511.091552 56.695313 410.36248 73.875532 310.435385 127.597706 233.209762L48.509645 164.067821C31.016493 148.993433 34.912968 110.777373 70.560523 110.777373L285.801212 64C299.886892 64 332.119862 69.8234 332.119862 110.777373 332.119862 151.731347 327.938272 259.280098 324.33417 318.768268 320.730067 378.256438 275.335858 361.711469 264.477098 344.633648L173.531258 267.023437C136.554687 327.828125 116.167848 409.396291 116.167969 511.091552 116.168168 678.973344 246.835945 859.95703 418.093757 890.039062 447.334742 895.175344 480.39457 895.476563 494.1836 895.476563 507.972634 895.476563 532.292976 899.753907 532.292976 922.796874 532.292976 945.839843 513.46351 952.50833 498.21097 956.494976 483.679395 960.293181 446.20767 956.495011 439.4924 956.495011Z" p-id="11903"></path><path d="M579.200579 65.688065C804.162176 99.264423 961.997664 276.057016 961.997664 511.091523 961.997664 611.820598 944.817446 711.74769 891.095274 788.973315L970.183334 858.115254C987.676483 873.189642 983.78001 911.405702 948.132454 911.405702L732.891766 958.183075C718.806086 958.183075 686.573114 952.359677 686.573114 911.405702 686.573114 870.451728 690.754704 762.902976 694.35881 703.414806 697.962912 643.926637 743.35712 660.471606 754.215882 677.549427L845.161722 755.159638C882.138291 694.35495 902.52513 612.786784 902.525008 511.091523 902.52481 343.209731 771.857034 162.226044 600.599219 132.144013 571.358237 127.007732 538.29841 126.706513 524.509376 126.706513 510.720346 126.706513 486.4 122.429169 486.4 99.386201 486.4 76.343232 505.229466 69.674745 520.482006 65.688099 535.013581 61.889896 572.485306 65.688065 579.200579 65.688065L579.200579 65.688065Z" p-id="11904"></path></svg>