<?xml version="1.0" standalone="no"?><!DOCTYPE svg PUBLIC "-//W3C//DTD SVG 1.1//EN" "http://www.w3.org/Graphics/SVG/1.1/DTD/svg11.dtd"><svg t="1505801688003" class="icon" style="" viewBox="0 0 1024 1024" version="1.1" xmlns="http://www.w3.org/2000/svg" p-id="14853" xmlns:xlink="http://www.w3.org/1999/xlink" width="200" height="200"><defs><style type="text/css"></style></defs><path d="M754.74342125 464.6414421875L357.491525 64.72342531250001a159.9672065625 159.9672065625 0 0 0-28.2608728125-24.528305625 53.3224021875 53.3224021875 0 0 0-73.05169124999999 15.9967209375 57.0549703125 57.0549703125 0 0 0 8.53158375 75.7178109375c41.058249374999995 41.5914740625 82.11649968750001 83.18294718749999 123.70797375000001 124.2411975l245.28304968749998 246.8827228125a71.4520190625 71.4520190625 0 0 1 5.865465 7.46513625l-7.46513625-4.2657928125c-62.387210624999994 68.2526746875-124.2411975 137.0385740625-187.69485656249998 204.22480124999998S324.431635625 831.4995696875 264.71054468750003 892.287108125a55.9885228125 55.9885228125 0 0 0-3.732568125 79.4503790625 53.3224021875 53.3224021875 0 0 0 79.45038 4.265791875c43.19114625-40.525025625000005 84.249395625-83.18294718749999 125.84086874999998-125.307645L756.876318125 558.48887a59.7210909375 59.7210909375 0 0 0-2.132896875-93.8474278125z" fill="#999999" p-id="14854"></path></svg>