<?xml version="1.0" standalone="no"?><!DOCTYPE svg PUBLIC "-//W3C//DTD SVG 1.1//EN" "http://www.w3.org/Graphics/SVG/1.1/DTD/svg11.dtd"><svg t="1505961297003" class="icon" style="" viewBox="0 0 1024 1024" version="1.1" xmlns="http://www.w3.org/2000/svg" p-id="12592" xmlns:xlink="http://www.w3.org/1999/xlink" width="200" height="200"><defs><style type="text/css"></style></defs><path d="M901.12 0H189.44c-51.2 0-87.04 35.84-87.04 81.92v51.2C61.44 143.36 35.84 174.08 35.84 215.04v727.04c0 46.08 40.96 81.92 87.04 81.92h235.52c20.48 0 35.84-15.36 35.84-30.72 0-20.48-15.36-30.72-35.84-30.72H122.88c-10.24 0-20.48-5.12-20.48-15.36V215.04c0-10.24 10.24-15.36 20.48-15.36h640c10.24 0 20.48 5.12 20.48 15.36v506.88l-225.28-20.48c-10.24 0-20.48 0-25.6 10.24-5.12 5.12-10.24 15.36-10.24 25.6l20.48 256c0 10.24 10.24 25.6 20.48 30.72h10.24c10.24 0 15.36-5.12 25.6-10.24l184.32-179.2V716.8h15.36-15.36v117.76l56.32-56.32c10.24-10.24 10.24-20.48 10.24-30.72V209.92c0-46.08-40.96-81.92-87.04-81.92H168.96v-51.2c0-10.24 10.24-15.36 20.48-15.36H901.12c10.24 0 20.48 5.12 20.48 15.36v645.12c0 15.36 15.36 30.72 35.84 30.72 20.48 0 35.84-15.36 35.84-30.72V81.92C988.16 35.84 952.32 0 901.12 0z m-296.96 916.48l-10.24-148.48 153.6 15.36-143.36 133.12z" p-id="12593"></path><path d="M194.56 547.84h460.8c20.48 0 35.84-15.36 35.84-30.72 0-20.48-15.36-30.72-35.84-30.72h-460.8c-15.36-5.12-30.72 10.24-30.72 25.6 0 20.48 15.36 35.84 30.72 35.84zM194.56 394.24h460.8c20.48 0 35.84-15.36 35.84-30.72s-15.36-30.72-35.84-30.72h-460.8c-15.36-5.12-30.72 10.24-30.72 30.72s15.36 30.72 30.72 30.72z" p-id="12594"></path></svg>