<?xml version="1.0" standalone="no"?><!DOCTYPE svg PUBLIC "-//W3C//DTD SVG 1.1//EN" "http://www.w3.org/Graphics/SVG/1.1/DTD/svg11.dtd"><svg t="1505791835323" class="icon" style="" viewBox="0 0 1024 1024" version="1.1" xmlns="http://www.w3.org/2000/svg" p-id="9148" xmlns:xlink="http://www.w3.org/1999/xlink" width="200" height="200"><defs><style type="text/css"></style></defs><path d="M707.93728 578.84672c-61.50656-82.35008-36.80256-147.64032-30.8992-160.512l23.6032-23.6032c44.28288-44.28288 44.3392-116.28544 0.11264-160.52736-6.76864-6.76352-14.23872-12.35968-22.11328-17.0496L678.64064 94.51008l-38.80448 0 0 108.30848c-35.14368-5.98016-72.61184 4.5056-99.72224 31.60064l-34.85696 34.85696-34.85696-34.85696c-27.20768-27.19744-64.82432-37.66784-100.0448-31.56992L370.3552 94.51008l-38.80448 0 0 122.81344c-7.75168 4.65408-15.11936 10.19392-21.79072 16.8704-44.22656 44.24192-44.17024 116.24448 0.11264 160.52736l25.24672 25.2672c2.08896 18.7648 7.17824 98.14528-44.13952 173.312-66.62144 97.5616-50.78016 288.08704-50.07872 296.1408 0.5888 6.68672 4.58752 12.60032 10.55232 15.63136 5.92896 2.9952 101.52448 50.11968 249.77408 50.11968 75.86816 0 165.55008-12.35456 264.02304-49.26464 7.2192-2.70848 12.14464-9.43616 12.56448-17.14688C778.25536 880.5376 787.61472 685.59872 707.93728 578.84672zM337.19808 261.632c29.10208-29.06624 76.51328-28.98944 105.76896 0.22528l47.23712 47.23712c4.13184 4.13184 9.6512 5.92896 15.0528 5.5552 5.4016 0.37376 10.92096-1.42336 15.0528-5.5552l47.23712-47.23712c29.19936-29.19936 76.6464-29.312 105.76896-0.22528 29.08672 29.10208 29.0304 76.4928-0.11264 105.65632l-26.24512 26.24512c-0.34816 0.37888-0.67584 0.77824-0.99328 1.18784-1.7152 1.9712-2.96448 4.18304-3.74784 6.53824-2.26816 4.87936-5.98016 13.9776-9.00096 26.51648-118.2208-47.19104-213.76-19.98848-258.55488-0.64512-0.63488-10.3936-1.664-16.80384-1.8432-17.81248-0.70656-4.18304-2.75456-7.78752-5.58592-10.55232-0.90624-1.82272-2.03264-3.5584-3.54816-5.07904l-26.37824-26.3936C308.16768 338.12992 308.11136 290.7392 337.19808 261.632zM739.40992 874.05568c-234.57792 83.38944-417.14176 18.90816-460.59008 0.75776-2.27328-41.30816-6.17472-185.84576 44.22656-259.64544 35.51232-51.99872 47.58528-105.35936 50.97984-144.74752 24.76032-13.44512 124.33408-58.9056 254.37696-2.67776-0.256 35.92704 9.98912 82.84672 48.42496 134.32832C737.26976 683.03872 740.01408 830.15168 739.40992 874.05568z" p-id="9149"></path></svg>