<?xml version="1.0" standalone="no"?><!DOCTYPE svg PUBLIC "-//W3C//DTD SVG 1.1//EN" "http://www.w3.org/Graphics/SVG/1.1/DTD/svg11.dtd"><svg t="1505791459289" class="icon" style="" viewBox="0 0 1024 1024" version="1.1" xmlns="http://www.w3.org/2000/svg" p-id="3208" xmlns:xlink="http://www.w3.org/1999/xlink" width="200" height="200"><defs><style type="text/css"></style></defs><path d="M760.91157 540.572206 760.91157 926.269204C760.91157 953.558733 738.708895 975.761408 711.419366 975.761408L318.892206 975.761408C291.601649 975.761408 269.400003 953.558733 269.400003 926.269204L269.400003 540.572206C269.400003 513.282673 291.601649 491.079997 318.892206 491.079997L711.419366 491.079997C738.708895 491.079997 760.91157 513.282673 760.91157 540.572206ZM317.185434 439.879997C262.74452 439.879997 218.200003 484.42452 218.200003 538.865434L218.200003 924.562432C218.200003 979.003346 262.743496 1023.547863 317.185434 1023.547863L709.712589 1023.547863C764.153503 1023.547863 808.69801 979.003346 808.69801 924.562432L808.69801 538.865428C808.69801 484.42452 764.153503 439.879997 709.712594 439.879997L317.185434 439.879997ZM269.400003 837.53323 269.400003 788.039997 533.725379 788.039997C547.407334 788.039997 558.498749 799.147249 558.498749 812.786616L558.498749 812.786616C558.498749 826.453791 547.430973 837.53323 533.725379 837.53323L269.400003 837.53323ZM269.400003 678.81323 269.400003 629.319997 534.067973 629.319997C547.729853 629.319997 558.805002 640.427249 558.805002 654.066616L558.805002 654.066616C558.805002 667.733791 547.725501 678.81323 534.067973 678.81323L269.400003 678.81323ZM760.91157 284.572206 760.91157 311.869204C760.91157 339.158733 738.708895 361.361408 711.419366 361.361408L318.892206 361.361408C291.601649 361.361408 269.400003 339.158733 269.400003 311.869204L269.400003 284.572206C269.400003 257.282673 291.601649 235.079997 318.892206 235.079997L711.419366 235.079997C738.708895 235.079997 760.91157 257.282673 760.91157 284.572206ZM317.185434 183.879997C262.74452 183.879997 218.200003 228.42452 218.200003 282.865434L218.200003 310.162432C218.200003 364.603346 262.743496 409.147863 317.185434 409.147863L709.712589 409.147863C764.153503 409.147863 808.69801 364.603346 808.69801 310.162432L808.69801 282.865428C808.69801 228.42452 764.153503 183.879997 709.712594 183.879997L317.185434 183.879997ZM581.71157 105.372206 581.71157 184.023956 448.600003 184.023956 448.600003 105.372206C448.600003 78.082673 470.801649 55.879997 498.092206 55.879997L532.219366 55.879997C559.508895 55.879997 581.71157 78.082673 581.71157 105.372206ZM496.385434 4.679997C441.94452 4.679997 397.400003 49.22452 397.400003 103.665434L397.400003 183.917696 629.498025 183.917696 629.498025 103.665428C629.498025 49.22452 584.953503 4.679997 530.512594 4.679997L496.385434 4.679997Z" p-id="3209"></path></svg>