<?xml version="1.0" standalone="no"?><!DOCTYPE svg PUBLIC "-//W3C//DTD SVG 1.1//EN" "http://www.w3.org/Graphics/SVG/1.1/DTD/svg11.dtd"><svg t="1505961165512" class="icon" style="" viewBox="0 0 1024 1024" version="1.1" xmlns="http://www.w3.org/2000/svg" p-id="9614" xmlns:xlink="http://www.w3.org/1999/xlink" width="200" height="200"><defs><style type="text/css"></style></defs><path d="M832.9 433.7c13.4 0 24.5-9.7 26.5-22.4 0.2-1 0.3-1.8 0.3-2.8 20.1-178.4-148.2-147.6-148.2-147.6-14.9 0-26.9 11.8-26.9 26.9 0 14.7 12 26.5 26.9 26.5 120.8-26.4 94.3 92.9 94.3 92.9-0.1 14.7 12.1 26.5 27.1 26.5z m-19.6-311.3c-58.1-13.5-118.1-1.8-134.9 1.3-1.4 0.2-2.5 1.3-3.7 1.5-0.5 0.2-1 0.7-1 0.7-16.6 4.7-28.6 19.7-28.6 37.5 0 21.2 17.4 38.7 39.2 38.7 0 0 21.1-2.8 35.5-8.3 14.2-5.7 134.9-4.2 194.7 94.9 32.6 72.4 14.4 120.8 12 128.6 0 0-7.8 18.9-7.8 37.4 0 21.4 17.4 34.9 39.2 34.9 18.1 0 33.3-2.5 37.7-32.7h0.2c64.6-211.4-78.4-310.7-182.5-334.5z" fill="#FFA439" p-id="9615"></path><path d="M403.9 849.8c-163.8 7.5-296.2-73.4-296.2-181.2 0-107.9 132.5-194.4 296.2-201.9 163.9-7.5 296.6 59.2 296.6 166.8 0 107.7-132.7 209-296.6 216.3z m348.8-350.2c-38.9-7.5-19.9-28-19.9-28s38-61.9-7.6-106.9c-56.4-55.7-193.8 7-193.8 7-52.4 16-38.5-7.3-31.1-47.1 0-46.9-16.2-126.1-156-79.4C204.6 292.4 84.8 457.4 84.8 457.4 1.5 567 12.5 651.8 12.5 651.8 33.3 839 234.9 890.4 391.7 902.6c164.9 12.7 387.7-56.1 455.1-197.5 67.6-141.8-55.1-197.8-94.1-205.5z" fill="#FF000E" p-id="9616"></path><path d="M426.9 669.8c-10.5 7.7-23.3 6.7-28.7-2.7-5.7-9-3.5-23.4 6.9-30.9 12.2-9 24.8-6.3 30.4 2.7 5.4 9 1.5 22.9-8.6 30.9z m-97.2 81.6c-30.8 3.5-55.6-14-55.6-39.4 0-25.2 22-51.7 52.7-54.9 35.3-3.3 58.3 16.7 58.3 42.2 0.2 25.2-24.8 48.6-55.4 52.1z m41.5-213.8c-164.8 19-145.7 171.2-145.7 171.2s-1.7 48.2 44.1 72.7c96.3 51.6 195.7 20.3 245.7-43.5 50.3-63.7 20.9-219.2-144.1-200.4z" fill="" p-id="9617"></path></svg>