<?xml version="1.0" standalone="no"?><!DOCTYPE svg PUBLIC "-//W3C//DTD SVG 1.1//EN" "http://www.w3.org/Graphics/SVG/1.1/DTD/svg11.dtd"><svg t="1505791556837" class="icon" style="" viewBox="0 0 1024 1024" version="1.1" xmlns="http://www.w3.org/2000/svg" p-id="4520" xmlns:xlink="http://www.w3.org/1999/xlink" width="200" height="200"><defs><style type="text/css"></style></defs><path d="M487.706199 120.171963c38.946011 6.303566 68.683289 40.08495 68.683289 80.809467 0 45.213761-36.650735 81.864496-81.864496 81.864496s-81.864496-36.650735-81.864496-81.864496c0-34.292014 21.084201-63.659879 50.997488-75.845409l-13.476943-38.700417c-45.902446 17.783015-78.452793 62.36335-78.452793 114.546849 0 67.818595 54.979172 122.796744 122.796744 122.796744 67.815525 0 122.796744-54.978149 122.796744-122.796744 0-48.507784-28.126594-90.447988-68.964698-110.398366l0.00307-16.810874 185.560206 0 0 352.185154 40.932248-0.13917L754.852562 32.840966 487.429907 32.840966 487.706199 120.171963z" p-id="4521"></path><path d="M151.741471 426.880367c6.303566-38.947034 40.08495-68.683289 80.809467-68.683289 45.213761 0 81.864496 36.650735 81.864496 81.864496 0 45.211714-36.650735 81.864496-81.864496 81.864496-34.293037 0-63.660902-21.085224-75.846432-50.998511l-38.699394 13.476943c17.781992 45.902446 62.36335 78.453816 114.546849 78.453816 67.817572 0 122.796744-54.981219 122.796744-122.796744 0-67.818595-54.981219-122.796744-122.796744-122.796744-48.50676 0-90.444918 28.124548-110.396319 68.957535l-16.812921 0L105.342722 73.773214l331.788615 0 0-40.932248L64.410474 32.840966c0 0 0.405229 390.432247 0 394.314671L151.741471 426.880367z" p-id="4522"></path><path d="M487.706199 754.125503c38.946011 6.303566 68.683289 40.08495 68.683289 80.809467 0 45.213761-36.650735 81.864496-81.864496 81.864496s-81.864496-36.650735-81.864496-81.864496c0-34.292014 21.084201-63.659879 50.997488-75.845409l-13.476943-38.698371c-45.902446 17.783015-78.452793 62.361303-78.452793 114.546849 0 67.818595 54.979172 122.796744 122.796744 122.796744 67.815525 0 122.796744-54.978149 122.796744-122.796744 0-48.502667-28.122501-90.441848-68.955488-110.393249l-0.00614-1.835811 226.492454 0L754.852562 486.74685l-40.932248 0 0 195.027835L487.429907 681.774685 487.706199 754.125503z" p-id="4523"></path><path d="M787.620873 425.601234c6.303566-38.947034 40.08495-68.683289 80.809467-68.683289 45.215808 0 81.864496 36.650735 81.864496 81.864496 0 45.211714-36.648688 81.864496-81.864496 81.864496-34.290991 0-63.658855-21.085224-75.844386-50.998511l-38.699394 13.476943c17.784038 45.902446 62.361303 78.453816 114.546849 78.453816 67.819618 0 122.796744-54.981219 122.796744-122.796744 0-67.818595-54.977126-122.796744-122.796744-122.796744-51.261501 0-95.186919 31.410384-113.578802 76.03472l0.002047 33.79878L787.620873 425.601234z" p-id="4524"></path><path d="M437.131337 681.774685 105.342722 681.774685 105.342722 485.625306 64.410474 485.625306 64.410474 723.229842 437.131337 722.706933Z" p-id="4525"></path></svg>