<?xml version="1.0" standalone="no"?><!DOCTYPE svg PUBLIC "-//W3C//DTD SVG 1.1//EN" "http://www.w3.org/Graphics/SVG/1.1/DTD/svg11.dtd"><svg t="1505961368833" class="icon" style="" viewBox="0 0 1024 1024" version="1.1" xmlns="http://www.w3.org/2000/svg" p-id="16941" xmlns:xlink="http://www.w3.org/1999/xlink" width="200" height="200"><defs><style type="text/css"></style></defs><path d="M896 106.666667c0-8.533333-4.266667-14.933333-10.666667-19.2C881.066667 85.333333 793.6 42.666667 661.333333 42.666667c-85.333333 0-123.733333 12.8-157.866667 25.6C475.733333 76.8 450.133333 85.333333 405.333333 85.333333c-59.733333 0-89.6-10.666667-121.6-19.2C251.733333 53.333333 217.6 42.666667 149.333333 42.666667 136.533333 42.666667 128 51.2 128 64l0 896c0 12.8 8.533333 21.333333 21.333333 21.333333s21.333333-8.533333 21.333333-21.333333L170.666667 597.333333c46.933333 2.133333 72.533333 10.666667 100.266667 19.2 34.133333 10.666667 68.266667 23.466667 134.4 23.466667 53.333333 0 81.066667-10.666667 110.933333-19.2 34.133333-10.666667 68.266667-23.466667 145.066667-23.466667 121.6 0 202.666667 40.533333 204.8 40.533333 10.666667 4.266667 23.466667 0 27.733333-8.533333C896 625.066667 896 622.933333 896 618.666667l0 0L896 106.666667 896 106.666667zM853.333333 586.666667c-36.266667-12.8-104.533333-32-192-32-85.333333 0-123.733333 12.8-157.866667 25.6C475.733333 588.8 450.133333 597.333333 405.333333 597.333333c-59.733333 0-89.6-10.666667-121.6-19.2-29.866667-10.666667-59.733333-19.2-113.066667-21.333333L170.666667 85.333333c46.933333 2.133333 72.533333 10.666667 100.266667 19.2C302.933333 117.333333 337.066667 128 405.333333 128c53.333333 0 81.066667-10.666667 110.933333-19.2C550.4 96 584.533333 85.333333 661.333333 85.333333c93.866667 0 164.266667 23.466667 192 36.266667L853.333333 586.666667z" p-id="16942"></path></svg>