<?xml version="1.0" standalone="no"?><!DOCTYPE svg PUBLIC "-//W3C//DTD SVG 1.1//EN" "http://www.w3.org/Graphics/SVG/1.1/DTD/svg11.dtd"><svg t="1505792041878" class="icon" style="" viewBox="0 0 1024 1024" version="1.1" xmlns="http://www.w3.org/2000/svg" p-id="12314" xmlns:xlink="http://www.w3.org/1999/xlink" width="200" height="200"><defs><style type="text/css"></style></defs><path d="M770.56 918.016l5.12-274.432c5.12 0 10.752-10.752 10.752-15.872v-15.872c0-47.616-26.112-94.72-68.608-116.224V153.6c5.12-31.744-26.112-63.488-57.856-63.488h-289.792c-36.864 0-68.608 31.744-68.608 68.608V496.128c-41.984 20.992-68.608 63.488-68.608 116.224v15.872c0 5.12 5.12 15.872 10.752 15.872l5.12 274.432c0 10.752 5.12 15.872 15.872 15.872h47.616c10.752 0 20.992-5.12 20.992-15.872l41.984-274.432h268.8l41.984 274.432c0 10.752 10.752 15.872 20.992 15.872h47.616C764.928 933.888 770.56 928.768 770.56 918.016L770.56 918.016zM337.92 147.968c0-15.872 5.12-26.112 20.992-26.112h300.544c15.872 0 26.112 10.752 26.112 26.112V480.256c-10.752-5.12-20.992-5.12-31.744-5.12h-284.672c-10.752 0-20.992 0-31.744 5.12V147.968L337.92 147.968zM306.176 902.144h-15.872l-10.752-252.928H343.04L306.176 902.144zM269.312 612.352c0-57.856 41.984-100.352 100.352-100.352h284.672c57.856 0 100.352 47.616 100.352 100.352H269.312zM717.824 902.144L680.96 649.216h63.488l-10.752 252.928H717.824z" fill="" p-id="12315"></path></svg>