<?xml version="1.0" standalone="no"?><!DOCTYPE svg PUBLIC "-//W3C//DTD SVG 1.1//EN" "http://www.w3.org/Graphics/SVG/1.1/DTD/svg11.dtd"><svg t="1505791870080" class="icon" style="" viewBox="0 0 1024 1024" version="1.1" xmlns="http://www.w3.org/2000/svg" p-id="9791" xmlns:xlink="http://www.w3.org/1999/xlink" width="200" height="200"><defs><style type="text/css"></style></defs><path d="M770.8 872.6h28.8v28.8h-28.8v-28.8z m-215.8 0h187.1v28.8H555v-28.8z m43.1-690.8h28.8v28.8h-28.8v-28.8z m-359.8-14.3h28.8v28.8h-28.8v-28.8z m518.1-14.4h28.8v28.8h-28.8v-28.8z m-129.5-28.8h28.8v28.8h-28.8v-28.8z m-86.3 0h28.8v28.8h-28.8v-28.8z m-143.9 28.8h28.8v28.8h-28.8v-28.8z m-57.6-28.8h28.8v28.8h-28.8v-28.8z m403 805.9H281.5c-103.2 0-187.1-83.9-187.1-187.1 0-7.9 6.4-14.4 14.4-14.4H914.8c7.9 0 14.4 6.4 14.4 14.4-0.1 103.2-84 187.1-187.1 187.1zM123.5 642.4c3.5 0.1 8.4 2.6 13.6 5.3 7.8 4 17.6 9.1 29.2 9.1 23.8 0 43.2-19.4 43.2-43.2 0-7.9 6.4-14.4 14.4-14.4s14.4 6.4 14.4 14.4c0 23.8 19.4 43.2 43.2 43.2s43.2-19.4 43.2-43.2c0-7.9 6.4-14.4 14.4-14.4s14.4 6.4 14.4 14.4c0 23.8 19.4 43.2 43.2 43.2s43.2-19.4 43.2-43.2c0-7.9 6.4-14.4 14.4-14.4 7.9 0 14.4 6.4 14.4 14.4 0 23.8 19.4 43.2 43.2 43.2 23.8 0 43.2-19.4 43.2-43.2 0-7.9 6.4-14.4 14.4-14.4 7.9 0 14.4 6.4 14.4 14.4 0 23.8 19.4 43.2 43.2 43.2s43.2-19.4 43.2-43.2c0-7.9 6.4-14.4 14.4-14.4 7.9 0 14.4 6.4 14.4 14.4 0 23.8 19.4 43.2 43.2 43.2s43.2-19.4 43.2-43.2c0-7.9 6.4-14.4 14.4-14.4 7.9 0 14.4 6.4 14.4 14.4 0 23.8 19.4 43.2 43.2 43.2 11.6 0 21.4-5 29.2-9.1 5.2-2.7 10.1-5.2 13.6-5.3 16 0.2 29 13 29 28.7 0 15.9-13.2 28.8-29.5 28.8H124c-16.3 0-29.5-12.9-29.5-28.8-0.1-15.7 12.9-28.4 29-28.7zM94.4 512.9c0-47.6 38.7-86.3 86.3-86.3h66.9l146.2 116.9L730 426.6h112.7c47.6 0 86.3 38.7 86.3 86.4s-38.7 86.3-86.3 86.3h-2.6c-6-16.7-21.8-28.8-40.5-28.8-23.8 0-43.2 19.4-43.2 43.2 0 7.9-6.4 14.4-14.4 14.4-7.9 0-14.4-6.4-14.4-14.4 0-23.8-19.4-43.2-43.2-43.2s-43.2 19.4-43.2 43.2c0 7.9-6.4 14.4-14.4 14.4s-14.4-6.4-14.4-14.4c0-23.8-19.4-43.2-43.2-43.2S526 589.9 526 613.7c0 7.9-6.4 14.4-14.4 14.4-7.9 0-14.4-6.4-14.4-14.4 0-23.8-19.4-43.2-43.2-43.2s-43 19.3-43 43.1c0 7.9-6.4 14.4-14.4 14.4-7.9 0-14.4-6.4-14.4-14.4 0-23.8-19.4-43.2-43.2-43.2-23.8 0-43.2 19.4-43.2 43.2 0 7.9-6.4 14.4-14.4 14.4s-14.4-6.4-14.4-14.4c0-23.8-19.4-43.2-43.2-43.2-18.7 0-34.6 12.1-40.5 28.8h-2.6c-47.5 0-86.3-38.7-86.3-86.3z m548.1-86.4l-243 84.5-105.7-84.5h348.7zM94.4 368.9c0-15.9 13.2-28.8 29.5-28.8h775.7c16.3 0 29.5 12.9 29.5 28.8s-13.2 28.8-29.5 28.8H124c-16.3 0-29.6-12.9-29.6-28.8zM295.9 95.5h431.7c111.1 0 201.5 90.4 201.5 201.5 0 7.9-6.4 14.4-14.4 14.4H108.9c-7.9 0-14.4-6.4-14.4-14.4-0.1-111.1 90.3-201.5 201.4-201.5z m604.5 518.2c-0.1-0.1-0.2 0-0.4 0h-1.6c35.4-19.6 59.5-57.4 59.5-100.7 0-35.8-16.4-67.8-42.1-88.9 24.2-7 42.1-28.9 42.1-55 0-15.1-6-28.7-15.7-39 9.5-7.9 15.7-19.7 15.7-33 0-127-103.3-230.3-230.3-230.3H295.9C169 66.7 65.7 170 65.7 297c0 13.3 6.2 25.1 15.7 33-9.6 10.3-15.7 23.9-15.7 39 0 26.1 17.8 48 42.1 55-25.7 21.1-42.1 53.1-42.1 88.9 0 43.3 24.1 81.1 59.5 100.7h-2v0.1c-31.8 0.4-57.6 26-57.6 57.5 0 15.1 6 28.7 15.7 39-9.5 7.9-15.7 19.7-15.7 33 0 119 96.8 215.9 215.9 215.9H742c119 0 215.9-96.8 215.9-215.9 0-13.3-6.2-25.1-15.7-33 9.6-10.3 15.7-23.9 15.7-39 0-31.5-25.7-57.1-57.5-57.5z" fill="#070102" p-id="9792"></path></svg>