<?xml version="1.0" standalone="no"?><!DOCTYPE svg PUBLIC "-//W3C//DTD SVG 1.1//EN" "http://www.w3.org/Graphics/SVG/1.1/DTD/svg11.dtd"><svg t="1505793214813" class="icon" style="" viewBox="0 0 1024 1024" version="1.1" xmlns="http://www.w3.org/2000/svg" p-id="12999" xmlns:xlink="http://www.w3.org/1999/xlink" width="200" height="200"><defs><style type="text/css"></style></defs><path d="M869.117 491.763c0 28.193-7.776 54.009-23.31 77.445 2.853 10.455 4.284 21.382 4.284 32.783 0 24.396-6.034 47.206-18.083 68.422 0.955 6.653 1.433 13.47 1.433 20.432 0 31.996-9.518 60.188-28.543 84.573 0.31 44.032-13.165 78.799-40.438 104.293-27.278 25.493-63.271 38.246-107.99 38.246h-61.367c-30.446 0-60.499-3.563-90.154-10.69-29.654-7.123-63.985-17.501-102.99-31.116-36.798-12.677-58.683-19.007-65.652-19.007h-137.007c-16.814 0-31.162-5.94-43.052-17.818-11.894-11.881-17.842-26.208-17.842-42.997v-304.090c0-16.784 5.947-31.118 17.842-42.996 11.89-11.879 26.238-17.818 43.052-17.818h130.348c11.415-7.599 33.14-32.144 65.175-73.647 18.386-23.753 35.361-44.022 50.9-60.815 7.615-7.916 13.239-21.455 16.892-40.624 3.639-19.163 8.478-39.2 14.511-60.11 6.015-20.902 15.851-38.010 29.495-51.314 12.366-11.713 26.641-17.578 42.814-17.578 26.641 0 50.583 5.152 71.835 15.442 21.246 10.299 37.418 26.372 48.525 48.229 11.094 21.851 16.65 51.314 16.65 88.371 0 29.462-7.615 59.867-22.834 91.231h83.719c32.983 0 61.53 12.039 85.633 36.11 24.098 24.074 36.155 52.427 36.155 85.050zM251.154 787.296c6.018-6.014 9.038-13.143 9.038-21.382 0-8.231-3.019-15.36-9.038-21.382-6.031-6.014-13.165-9.029-21.409-9.029-8.25 0-15.385 3.017-21.407 9.029-6.027 6.020-9.038 13.148-9.038 21.382 0 8.237 3.011 15.366 9.038 21.382 6.022 6.020 13.155 9.029 21.407 9.029 8.245 0 15.379-3.010 21.409-9.029zM808.228 492.235c0-16.153-6.188-30.324-18.555-42.525-12.371-12.189-26.485-18.29-42.34-18.29h-167.451c0-18.364 7.609-43.633 22.834-75.786 15.223-32.144 22.834-57.566 22.834-76.261 0-31.037-5.073-54.004-15.219-68.891-10.157-14.885-30.448-22.333-60.897-22.333-8.247 8.244-14.27 21.702-18.077 40.387-3.806 18.693-8.643 38.567-14.511 59.632-5.872 21.070-15.305 38.411-28.301 52.026-6.982 7.29-19.193 21.702-36.63 43.237-1.27 1.586-4.923 6.342-10.945 14.252-6.027 7.922-11.019 14.419-14.983 19.484-3.969 5.067-9.444 11.805-16.415 20.191-6.977 8.399-13.319 15.366-19.026 20.905-5.711 5.548-11.818 11.167-18.319 16.871-6.505 5.698-12.845 9.978-19.026 12.823-6.188 2.848-11.82 4.273-16.892 4.273h-15.225v304.090h15.225c4.119 0 9.116 0.471 14.988 1.424 5.859 0.948 11.094 1.983 15.696 3.084 4.594 1.114 10.623 2.855 18.077 5.228 7.447 2.378 13.004 4.205 16.65 5.463 3.646 1.269 9.277 3.257 16.892 5.939 7.609 2.7 12.205 4.362 13.792 4.991 66.918 23.126 121.149 34.685 162.703 34.685h57.561c60.897 0 91.339-26.446 91.339-79.345 0-8.237-0.795-17.107-2.377-26.607 9.513-5.067 17.040-13.379 22.598-24.948 5.542-11.558 8.322-23.203 8.322-34.919 0-11.721-2.853-22.643-8.564-32.788 16.807-15.831 25.215-34.685 25.215-56.54 0-7.908-1.588-16.699-4.756-26.366-3.173-9.66-7.137-17.181-11.894-22.569 10.144-0.31 18.629-7.76 25.45-22.333 6.814-14.562 10.233-27.396 10.233-38.487z" p-id="13000"></path></svg>