<?xml version="1.0" standalone="no"?><!DOCTYPE svg PUBLIC "-//W3C//DTD SVG 1.1//EN" "http://www.w3.org/Graphics/SVG/1.1/DTD/svg11.dtd"><svg t="1505791800222" class="icon" style="" viewBox="0 0 1024 1024" version="1.1" xmlns="http://www.w3.org/2000/svg" p-id="8473" xmlns:xlink="http://www.w3.org/1999/xlink" width="200" height="200"><defs><style type="text/css"></style></defs><path d="M995.89376 223.15648l-158.24-126.592c-11.2192-8.99328-25.18912-13.87648-39.52896-13.87648l-569.6768 0c-14.37184 0-28.30976 4.8832-39.54432 13.87648l-158.24 126.592C9.95712 239.72224 1.78304 267.44576 10.15808 292.6016l63.296 189.888c6.24256 18.69824 20.84608 33.44 39.5136 39.83872 6.69184 2.28736 13.62944 3.4304 20.5376 3.4304 11.01824 0 21.94304-2.87488 31.648-8.4672l0 388.24192c0 34.95552 28.34048 63.29472 63.296 63.29472l569.6768 0c34.92352 0 63.29472-28.34048 63.29472-63.29472L861.4208 517.29024c9.70496 5.59232 20.6144 8.4672 31.64928 8.4672 6.89152 0 13.84448-1.14304 20.52096-3.4304 18.66752-6.39744 33.2544-21.1392 39.49824-39.83872l63.29472-189.888C1024.78976 267.44576 1016.60032 239.72224 995.89376 223.15648zM632.096 145.984C614.62272 182.73152 568.21632 209.28 513.28 209.28c-54.93504 0-101.34144-26.54848-118.81856-63.296L632.096 145.984zM893.0688 462.46144l-94.944-63.296 0 506.36672-569.6768 0L228.448 399.16672l-94.944 63.296L70.20928 272.576l158.24-126.592 132.18688 0c17.64736 54.48832 78.99648 94.944 152.64512 94.944 73.64992 0 134.99648-40.45568 152.64256-94.944l132.20224 0 158.23872 126.592L893.0688 462.46144z" p-id="8474"></path></svg>