<?xml version="1.0" standalone="no"?><!DOCTYPE svg PUBLIC "-//W3C//DTD SVG 1.1//EN" "http://www.w3.org/Graphics/SVG/1.1/DTD/svg11.dtd"><svg t="1505823630077" class="icon" style="" viewBox="0 0 1024 1024" version="1.1" xmlns="http://www.w3.org/2000/svg" p-id="21485" xmlns:xlink="http://www.w3.org/1999/xlink" width="200" height="200"><defs><style type="text/css"></style></defs><path d="M1024 512c0 12.8-6.4 25.6-12.8 38.4-51.2 89.6-128 160-217.6 211.2S614.4 838.4 512 838.4s-198.4-25.6-288-76.8C134.4 710.4 64 640 12.8 550.4 6.4 537.6 0 524.8 0 512c0-12.8 6.4-25.6 12.8-38.4C64 384 134.4 313.6 224 262.4 313.6 211.2 409.6 185.6 512 185.6s198.4 25.6 288 76.8C889.6 313.6 960 384 1011.2 473.6 1017.6 486.4 1024 499.2 1024 512zM953.6 512c-57.6-89.6-128-160-217.6-204.8 25.6 38.4 32 83.2 32 128 0 70.4-25.6 128-76.8 179.2C640 672 582.4 697.6 512 697.6s-128-25.6-179.2-76.8C281.6 569.6 256 512 256 441.6c0-44.8 12.8-89.6 32-128C204.8 352 128 422.4 70.4 512c51.2 76.8 115.2 140.8 192 185.6C339.2 742.4 422.4 768 512 768s172.8-25.6 249.6-70.4C838.4 652.8 902.4 588.8 953.6 512zM531.2 313.6c6.4-6.4 6.4-12.8 6.4-19.2 0-6.4 0-12.8-6.4-19.2C524.8 268.8 518.4 262.4 512 262.4c-44.8 0-89.6 19.2-121.6 51.2C358.4 352 339.2 390.4 339.2 441.6c0 6.4 0 12.8 6.4 19.2 6.4 6.4 12.8 6.4 19.2 6.4 6.4 0 12.8 0 19.2-6.4C390.4 454.4 390.4 448 390.4 441.6c0-32 12.8-57.6 32-83.2C454.4 332.8 480 320 512 320 518.4 320 524.8 320 531.2 313.6z" p-id="21486"></path></svg>