<?xml version="1.0" standalone="no"?><!DOCTYPE svg PUBLIC "-//W3C//DTD SVG 1.1//EN" "http://www.w3.org/Graphics/SVG/1.1/DTD/svg11.dtd"><svg t="1505791749199" class="icon" style="" viewBox="0 0 1024 1024" version="1.1" xmlns="http://www.w3.org/2000/svg" p-id="7797" xmlns:xlink="http://www.w3.org/1999/xlink" width="200" height="200"><defs><style type="text/css"></style></defs><path d="M993.574 505.052c-2.159 0-4.204 0.382-6.192 0.924-14.513-128.079-150.742-164.32-235.423-165.162-1.064-0.159-2.1-0.333-3.191-0.333h-0.017l-468.987 0.46c-2.58-0.032-4.908-0.223-7.567-0.223-84.31 0-223.618 35.526-238.584 164.795a23.277 23.277 0 0 0-4.471-0.46c-13.264 0-24.022 10.948-24.022 24.446s10.758 24.45 24.022 24.45h1.031c1.064 0 2.047-0.176 3.065-0.32 11.26 131.15 111.192 190.279 210.37 190.279 107.252 0 245.623-121.22 245.623-249.982 0-2.083-0.156-4.216-0.22-6.318 2.27-5.794 9.93-22.679 21.676-22.679 11.243 0 18.671 15.278 21.332 21.758-0.096 2.418-0.252 4.853-0.252 7.24 0 128.761 138.37 249.98 245.623 249.98 99.287 0 199.315-59.289 210.355-190.774 1.878 0.48 3.816 0.816 5.833 0.816h1.032c13.26 0 23.506-10.953 23.506-24.45s-11.28-24.447-24.542-24.447z m-749.967 189.96c-79.02 0-163.453-43.69-163.453-166.323 0-125.149 147.66-137.77 185.194-138.947 0.36 0.017 0.72 0.113 1.093 0.113h0.02l20.579-0.02c154.134 4.488 154.15 79.073 154.15 104.093-0.003 99.762-114.964 201.084-197.583 201.084z m267.078-278.98c-14.12 0-25.835 4.76-35.531 11.7-6.615-13.593-16.06-26.5-28.932-38.056l128.708-0.126c-12.887 11.54-22.38 24.416-29.01 37.992-9.651-6.829-21.254-11.51-35.235-11.51z m266.703 278.98c-82.618 0-197.579-101.321-197.579-201.086 0-2.226 0-4.884 0.108-7.83 0.175-1.192 0.203-2.388 0.187-3.596 2.174-32.199 20.111-92.888 168.665-92.888 19.657 0 192.041 3.902 192.041 139.075 0 122.635-84.417 166.325-163.422 166.325z" p-id="7798"></path></svg>