<?xml version="1.0" standalone="no"?><!DOCTYPE svg PUBLIC "-//W3C//DTD SVG 1.1//EN" "http://www.w3.org/Graphics/SVG/1.1/DTD/svg11.dtd"><svg t="1505791614418" class="icon" style="" viewBox="0 0 1024 1024" version="1.1" xmlns="http://www.w3.org/2000/svg" p-id="5222" xmlns:xlink="http://www.w3.org/1999/xlink" width="200" height="200"><defs><style type="text/css"></style></defs><path d="M179.2 716.8l665.6 0c42.3424 0 76.8-34.4576 76.8-76.8l0-409.6c0-42.3424-34.4576-76.8-76.8-76.8l-665.6 0c-42.3424 0-76.8 34.4576-76.8 76.8l0 409.6c0 42.3424 34.4576 76.8 76.8 76.8zM153.6 230.4c0-14.1312 11.4688-25.6 25.6-25.6l665.6 0c14.1312 0 25.6 11.4688 25.6 25.6l0 409.6c0 14.1312-11.4688 25.6-25.6 25.6l-665.6 0c-14.1312 0-25.6-11.4688-25.6-25.6l0-409.6z" p-id="5223"></path><path d="M998.4 768l-972.8 0c-14.1312 0-25.6 11.4688-25.6 25.6l0 51.2c0 42.3424 34.4576 76.8 76.8 76.8l870.4 0c42.3424 0 76.8-34.4576 76.8-76.8l0-51.2c0-14.1312-11.4688-25.6-25.6-25.6zM947.2 870.4l-870.4 0c-14.1312 0-25.6-11.4688-25.6-25.6l0-25.6 921.6 0 0 25.6c0 14.1312-11.4688 25.6-25.6 25.6z" p-id="5224"></path></svg>