<?xml version="1.0" standalone="no"?><!DOCTYPE svg PUBLIC "-//W3C//DTD SVG 1.1//EN" "http://www.w3.org/Graphics/SVG/1.1/DTD/svg11.dtd"><svg t="1505791912750" class="icon" style="" viewBox="0 0 1024 1024" version="1.1" xmlns="http://www.w3.org/2000/svg" p-id="10619" xmlns:xlink="http://www.w3.org/1999/xlink" width="200" height="200"><defs><style type="text/css"></style></defs><path d="M806.874112 64H248.621056c-40.24832 0-57.747456 29.7472-57.747456 57.747456v111.130624h-30.625792c-14.8736 0-27.121664 13.11744-27.121664 28.000256 0 14.8736 12.248064 27.121664 27.121664 27.121664h30.625792v112.877568h-28.000256c-14.8736 0-27.121664 12.248064-27.121664 27.121664s12.248064 27.121664 27.121664 27.121664h28.000256v113.75616h-28.869632c-14.004224 0-27.13088 12.248064-27.13088 27.121664s13.126656 28.000256 27.13088 28.000256h28.869632v112h-28.869632c-14.882816 0-27.13088 12.248064-27.13088 27.121664s13.126656 28.000256 27.13088 28.000256h28.869632v112.878592c0 41.125888 28.877824 56.000512 56.87808 56.000512h559.122432c46.37696 0 83.999744-37.622784 83.999744-83.999744V148.000768c0-46.37696-37.622784-84.000768-83.999744-84.000768z m-560 840.000512v-112.878592h28.877824c14.8736 0 28.000256-13.126656 28.000256-28.000256s-12.248064-27.121664-28.000256-27.121664h-28.877824v-112h28.877824c14.8736 0 28.000256-13.126656 28.000256-28.000256s-13.126656-27.121664-28.000256-27.121664h-28.877824v-113.75616h29.7472c15.751168 0 27.13088-11.370496 27.13088-27.121664 0-14.8736-11.378688-27.121664-27.13088-27.121664h-29.7472V288h27.13088c34.997248 0 34.997248-55.12192 0-55.12192h-27.13088V120.000512h448v784h-448z m587.999232-28.000256c0 14.8736-13.126656 28.000256-28.000256 28.000256h-56.000512V120.000512h56.000512c14.8736 0 28.000256 13.126656 28.000256 28.000256v727.999488z" fill="" p-id="10620"></path></svg>