<?xml version="1.0" standalone="no"?><!DOCTYPE svg PUBLIC "-//W3C//DTD SVG 1.1//EN" "http://www.w3.org/Graphics/SVG/1.1/DTD/svg11.dtd"><svg t="1505791668266" class="icon" style="" viewBox="0 0 1024 1024" version="1.1" xmlns="http://www.w3.org/2000/svg" p-id="5993" xmlns:xlink="http://www.w3.org/1999/xlink" width="200" height="200"><defs><style type="text/css"></style></defs><path d="M836.265984 360.58624c-23.600128 0-46.10048 4.573184-66.917376 12.550144l-84.000768-166.34368 65.585152 0 0-34.180096L629.850112 172.612608l34.515968 68.360192L368.699392 240.9728l-17.23392-34.180096L409.6 206.792704l0-34.180096L295.998464 172.612608l38.383616 76.121088c-0.19968 0.283648-0.466944 0.51712-0.633856 0.817152l-72.36608 126.139392c-22.633472-9.69728-47.516672-15.104-73.650176-15.104C84.214784 360.58624 0 444.91776 0 548.591616c0 103.65952 84.215808 187.990016 187.732992 187.990016 97.748992 0 178.21696-75.234304 186.865664-170.90048l139.717632 0c6.08256 0 11.700224-3.236864 14.76608-8.510464l157.599744-271.988736 52.04992 103.073792c-53.982208 33.045504-90.19904 92.459008-90.19904 160.334848 0 103.675904 84.216832 188.008448 187.732992 188.008448 103.518208 0 187.734016-84.33152 187.734016-188.008448C1024 444.91776 939.784192 360.58624 836.265984 360.58624zM352.715776 285.100032l124.250112 246.402048-102.367232 0c-5.266432-58.194944-37.066752-108.780544-83.2-139.505664L352.715776 285.100032zM340.33152 531.50208l-128.98304 0 63.01696-109.832192C310.316032 446.369792 335.265792 485.957632 340.33152 531.50208zM187.732992 702.401536c-84.70016 0-153.6-68.992-153.6-153.80992 0-84.814848 68.89984-153.826304 153.6-153.826304 19.949568 0 38.949888 3.938304 56.450048 10.898432l-77.11744 134.417408c-3.033088 5.289984-3.016704 11.799552 0.033792 17.072128 3.049472 5.274624 8.68352 8.527872 14.76608 8.527872l158.466048 0C331.798528 642.471936 266.648576 702.401536 187.732992 702.401536zM510.216192 521.606144 385.932288 275.152896l267.099136 0L510.216192 521.606144zM836.265984 702.419968c-84.70016 0-153.6-69.010432-153.6-153.828352 0-54.557696 28.60032-102.455296 71.499776-129.775616l72.265728 143.127552 30.468096-15.420416-72.049664-142.695424c16.099328-5.757952 33.366016-9.0624 51.416064-9.0624 84.70016 0 153.6 69.011456 153.6 153.826304C989.865984 633.409536 920.966144 702.419968 836.265984 702.419968z" p-id="5994"></path></svg>