<?xml version="1.0" standalone="no"?><!DOCTYPE svg PUBLIC "-//W3C//DTD SVG 1.1//EN" "http://www.w3.org/Graphics/SVG/1.1/DTD/svg11.dtd"><svg t="1505961954326" class="icon" style="" viewBox="0 0 1024 1024" version="1.1" xmlns="http://www.w3.org/2000/svg" p-id="18803" xmlns:xlink="http://www.w3.org/1999/xlink" width="200" height="200"><defs><style type="text/css"></style></defs><path d="M515.413333 511.408128m-409.6 0a409.6 409.6 0 1 0 819.2 0 409.6 409.6 0 1 0-819.2 0Z" fill="#50D3C1" p-id="18804"></path><path d="M511.260672 540.030293l226.944341-189.085696c-1.229483-0.223232-2.334037-0.735915-3.609941-0.735914h-446.6688c-1.24928 0-2.360661 0.505856-3.590827 0.735914l226.925227 189.085696zM754.901675 370.515285c0-2.131285-0.584363-4.103509-1.229483-6.043648L592.798379 498.560341l161.117525 161.149611c0.413696-1.624064 0.985771-3.189419 0.985771-4.945237V370.515285zM268.854613 364.45184c-0.62464 1.953109-1.24928 3.899392-1.24928 6.063445v284.243286c0 1.775616 0.611669 3.334144 1.012395 4.958208l161.169408-161.163264L268.854613 364.45184z" fill="#FFFFFF" p-id="18805"></path><path d="M577.107968 511.607467l-59.363328 49.446912c-1.861632 1.584469-4.163584 2.347008-6.483968 2.347008-2.301952 0-4.616875-0.762539-6.498304-2.347008l-59.310763-49.420288L283.01312 674.065749c1.598123 0.421205 3.182592 1.006251 4.912469 1.006251h446.675627c1.762645 0 3.347115-0.578219 4.978688-1.006251L577.107968 511.607467z" fill="#FFFFFF" p-id="18806"></path></svg>